<?xml version="1.0" encoding="UTF-8" standalone="no"?>
<!-- Created with Inkscape (http://www.inkscape.org/) -->

<svg
   width="136.23045mm"
   height="119.57031mm"
   viewBox="0 0 136.23045 119.57031"
   version="1.1"
   id="svg1"
   xmlns:inkscape="http://www.inkscape.org/namespaces/inkscape"
   xmlns:sodipodi="http://sodipodi.sourceforge.net/DTD/sodipodi-0.dtd"
   xmlns="http://www.w3.org/2000/svg"
   xmlns:svg="http://www.w3.org/2000/svg">
  <sodipodi:namedview
     id="namedview1"
     pagecolor="#505050"
     bordercolor="#eeeeee"
     borderopacity="1"
     inkscape:showpageshadow="0"
     inkscape:pageopacity="0"
     inkscape:pagecheckerboard="0"
     inkscape:deskcolor="#505050"
     inkscape:document-units="mm"
     showgrid="false">
    <inkscape:grid
       id="grid1"
       units="mm"
       originx="-36.884764"
       originy="-88.714841"
       spacingx="0.99999998"
       spacingy="1"
       empcolor="#0099e5"
       empopacity="0.30196078"
       color="#0099e5"
       opacity="0.14901961"
       empspacing="5"
       dotted="false"
       gridanglex="30"
       gridanglez="30"
       visible="false" />
  </sodipodi:namedview>
  <defs
     id="defs1" />
  <g
     inkscape:label="Capa 1"
     inkscape:groupmode="layer"
     id="layer1"
     transform="translate(-36.884766,-88.714841)">
    <g
       id="g773">
      <path
         style="fill:#818df8;fill-opacity:1;stroke:none;stroke-width:0.499999"
         d="m 130.48437,88.714846 v 3.941406 6.755859 4.767579 1.98828 6.75391 2.95702 3.79883 6.75391 1.14844 5.60742 6.0918 0.66406 6.7539 4.28125 2.47461 6.75391 2.47266 4.2832 6.7539 0.66211 6.09375 5.60743 7.48632 l 7.32813,-4.22656 4.01758,-2.31836 7.88671,-4.55273 v -8.08985 -0.66211 -6.7539 -4.2832 -2.47266 -4.58203 l 2.39649,-1.38477 1.57031,-0.90625 5.84961,-3.37695 5.84961,-3.37695 7.73242,-4.46485 v -2.83593 -6.0918 -5.60742 -1.14844 -6.75391 -3.79883 -2.95702 -8.74219 -4.767579 -10.697265 h -15.15625 -0.30859 -11.69922 -11.39258 z m 19.23242,19.230474 h 4.16797 v 4.97656 2.95702 3.79883 6.75391 1.14844 3.43359 l -3.96679,2.28906 -0.20118,0.11524 v -0.23047 -5.60742 -1.14649 -6.75586 -3.79883 -2.95702 z"
         id="path773" />
      <path
         style="fill:#2bd4bd;fill-opacity:1;stroke:none;stroke-width:0.499999"
         d="m 83.685548,88.714846 v 3.941406 6.755859 4.767579 1.98828 6.75391 2.95702 3.79883 6.75391 1.14844 5.60742 6.0918 2.83789 l 7.732422,4.46289 3.966797,2.28906 v 2.10937 2.47461 6.75391 2.47266 4.2832 6.7539 0.66211 6.09375 5.60743 1.14648 6.75586 3.79687 4.95313 L 105,208.28515 l 9.61719,-5.55273 v -4.95313 -3.79687 -6.75586 -1.14648 -5.60743 -6.09375 -0.66211 -6.7539 -4.2832 -2.47266 -6.75391 -2.47461 -2.10937 l 3.96679,-2.28906 7.73242,-4.46289 v -2.83789 -6.0918 -5.60742 -1.14844 -6.75391 -3.79883 -2.95702 -6.75391 -1.98828 -4.767579 -6.753906 -3.943359 h -4.07226 -11.08594 -4.07226 v 3.943359 6.753906 4.767579 1.98828 6.75391 2.95702 3.79883 6.75391 1.14844 3.43164 l -2.08789,1.20508 -2.08203,-1.20118 v -3.43554 -1.14844 -6.75391 -3.79883 -2.95702 -6.75391 -1.98828 -4.767579 -6.753906 -3.943359 H 98.843751 87.757814 Z"
         id="path772" />
      <path
         style="fill:#818df8;fill-opacity:1;stroke:none;stroke-width:0.499999"
         d="m 36.884767,88.714846 v 10.697265 4.767579 8.74219 2.95702 3.79883 6.75391 1.14844 5.60742 6.0918 0.6621 6.75586 4.28125 2.47461 6.75391 2.47266 6.27929 l 7.886718,4.55078 11.345704,6.55078 v -13.09765 -4.2832 -2.47266 -6.75391 -2.47461 -4.28125 -3.65234 h 4.167968 v 3.65234 4.28125 2.47461 6.75391 2.47266 4.2832 6.7539 0.66211 8.08985 l 7.886719,4.55273 4.017578,2.32031 7.326172,4.22461 v -7.48632 -5.60743 -6.09375 -0.66211 -6.7539 -4.2832 -2.47266 -6.75391 -2.47461 -4.28125 -6.7539 -0.66406 -6.0918 -5.60742 -1.14844 -6.75391 -3.79883 -2.95702 -6.75391 -1.98828 -4.767579 -6.755859 -3.941406 H 75.44336 60.285157 v 10.697265 4.767579 1.98633 6.75586 2.95702 3.79883 4.13672 h -4.167968 v -4.13672 -3.79883 -2.95702 -6.75391 -1.98828 -11.521485 -3.943359 H 52.04297 Z"
         id="path766" />
    </g>
  </g>
</svg>
